<?xml version="1.0" encoding="utf-8"?>
<!-- Generator: Adobe Illustrator 25.4.1, SVG Export Plug-In . SVG Version: 6.00 Build 0)  -->
<svg version="1.1" id="Layer_1" xmlns="http://www.w3.org/2000/svg" xmlns:xlink="http://www.w3.org/1999/xlink" x="0px" y="0px"
	 viewBox="0 0 595.28 841.89" style="enable-background:new 0 0 595.28 841.89;" xml:space="preserve">
<style type="text/css">
	.st0{fill:#F57F20;}
	.st1{fill:#FFFFFF;}
	.st2{fill:#201E5A;}
	.st3{font-family:'MyriadPro-Regular';}
	.st4{font-size:8.2387px;}
</style>
<g>
	<path class="st0" d="M187.56,290.67c-0.3-0.2-1.42-1-1.74-2.44c-0.2-0.92,0.01-1.67,0.15-2.04c0.03-0.12,0.17-0.52,0.61-0.8
		c0.1-0.06,0.53-0.33,1.03-0.24c0.52,0.1,0.94,0.56,1.03,1.14c0.01,0.04,0.02,0.11,0.03,0.18c0.07,0.49,0.01,0.86-0.01,1.05
		c-0.04,0.29-0.07,0.71-0.06,1.28c-0.68-2.4-1.14-2.94-1.45-2.92c-0.41,0.02-0.68,1.01-0.74,1.62
		C186.25,289.05,187.18,290.23,187.56,290.67z"/>
	<path class="st0" d="M190.04,291.53c-0.11,0.65-0.11,1.2-0.08,1.6c0.04,0.73,0.18,1.13-0.08,1.33c-0.24,0.19-0.8,0.16-1.11,0.1
		c-0.2-0.04-0.33-0.1-0.41-0.03c-0.17,0.12,0.11,0.49-0.06,0.67c-0.09,0.1-0.22,0.05-0.74,0.05c-0.59,0.01-0.71,0.08-0.83-0.02
		c-0.2-0.18,0.03-0.52-0.18-0.69c-0.13-0.11-0.32-0.05-0.63-0.02c-0.67,0.07-1.12,0.13-1.34-0.05c-0.28-0.21-0.12-0.68,0-1.8
		c0.07-0.62,0.09-1.13,0.1-1.44h0.05c0.2,0.05,0.37,0.09,0.48,0.03L190.04,291.53z"/>
	<path class="st0" d="M214.32,365.12c-0.48-2.58-2.63-3.15-7.2-7.48c-2.45-2.33-4.02-4.23-4.64-5.02c-1.9-2.39-3.17-4.54-3.95-5.99
		c0.01,0.13,0.02,0.31,0.04,0.52c0.04,0.56,0.16,1.47,0.56,2.79c0.47,1.49,0.84,2.71,1.74,4.09c1.2,1.84,2.13,2.15,2.53,3.79
		c0.16,0.68,0.26,1.73-0.07,1.83c-0.59,0.2-2.32-2.75-3.03-3.96c-0.53-0.9-1.37-2.43-2.33-4.67c-0.86-2-1.69-3.93-2.25-6.57
		c-0.31-1.47-0.13-1.24-0.6-3.78c-0.48-2.6-0.74-3.22-1.01-4.97c-0.16-1.05-0.33-2.62-0.31-4.6c-0.05,0.15-0.15,0.38-0.27,0.68
		c-0.43,1.02-0.72,1.57-1.24,2.7c-0.14,0.3-0.34,0.75-0.59,1.32c-0.21,0.51-0.51,1.26-0.84,2.18c0,0-0.45,1.33-0.82,2.52
		c-1.25,4.01,0.61,10.13-0.13,10.31c-0.07,0.02-0.26,0.01-0.69-0.65c-1.67-2.57-0.97-5.74-0.85-6.28
		c2.61-11.99,2.02-10.07,2.58-11.96c2.21-7.33,2.61-7.88,3.04-10.78c0.67-4.58,1.02-6.97-0.41-9.29c-1.05-1.69-1.94-3.45-2.94-5.17
		c-0.24-0.39-0.68-1.14-0.76-2.18c-0.08-1.01,0.28-1.99,0.44-2.46c0.15-0.43,0.17-0.38,0.45-1.07c0.59-1.43,0.88-2.14,0.95-3.01
		c0.11-1.32-0.39-1.73,0-2.09c0.39-0.35,1.02-0.07,2.84-0.02c0.71,0.02,1.29,0,1.68-0.03c-0.06-0.22-0.17-0.54-0.35-0.9
		c-0.12-0.25-0.47-0.88-1.9-2.22c-1.11-1.04-1.59-1.3-1.99-1.46c-0.34-0.15-1.06-0.44-1.49-0.15c-0.29,0.19-0.34,0.56-0.38,0.56
		c-0.03-0.01,0-0.25,0.19-1.1c-1.55,0.33-2.8,0.26-3.03-0.19c-0.13,0.1-0.39,0.28-0.78,0.35c-0.69,0.12-1.22-0.2-1.33-0.27
		c0.23,0.49,0.19,0.69,0.09,0.77c-0.02,0.02-0.04,0.03-0.06,0.03l4.83,0.26c-0.11,0.65-0.11,1.2-0.08,1.6
		c0.04,0.73,0.18,1.13-0.08,1.33c-0.24,0.19-0.8,0.16-1.11,0.1c-0.2-0.04-0.33-0.1-0.41-0.03c-0.17,0.12,0.11,0.49-0.06,0.67
		c-0.09,0.1-0.22,0.05-0.74,0.05c-0.59,0.01-0.71,0.08-0.83-0.02c-0.2-0.18,0.03-0.52-0.18-0.69c-0.13-0.11-0.32-0.05-0.63-0.02
		c-0.67,0.07-1.12,0.13-1.34-0.05c-0.28-0.21-0.12-0.68,0-1.8c0.07-0.62,0.09-1.13,0.1-1.44h0.05c-0.31-0.08-0.68-0.21-0.92-0.04
		c-0.28,0.2-0.1,0.57-0.38,0.71c-0.33,0.16-0.83-0.25-1.04-0.06c-0.08,0.06-0.07,0.18-0.07,0.24c-0.01,0.61-1.42,1.18-2.07,1.6
		c-0.5,0.32-1.1,0.89-1.51,2.02c2.5-0.15,3.16,0.07,3.24,0.34c0.02,0.05,0,0.09-0.05,0.48c0,0-0.02,0.25-0.07,0.88
		c-0.06,0.91,0.43,2.19,0.43,2.19c0.53,1.37,1.24,2.24,1.6,2.81c1.69,2.63,1.2,6.76-0.86,9.06c-0.67,0.74-0.83,0.54-1.66,1.46
		c-1.3,1.43-1.73,2.83-2.39,5.05c-1.07,3.6-1.6,5.39-1.7,5.93c-0.46,2.44-0.89,6.37-0.06,11.33c0.46-0.46,1.13-1.15,1.89-2.01
		c0.62-0.7,2.24-2.56,4.39-5.77c1.86-2.77,2.79-4.55,2.97-4.48c0.06,0.03,0.08,0.23-0.57,1.9c-1.3,3.37-2.68,5.85-2.78,6.02
		c-1.24,2.22-3.03,5.4-6,9.02c-1.66,2.03-2.49,3.04-3.14,3.6c-1.26,1.07-2.66,1.92-3.5,3.7c-0.24,0.49-0.36,0.92-0.43,1.2
		c1.11-0.61,1.88-1.22,2.37-1.66c0.86-0.78,1.27-1.39,2.37-2.09c0.08-0.05,1.42-0.91,1.61-0.72c0.26,0.25-1.88,2.37-3.13,3.6
		c-1.33,1.33-2.59,2.57-4.52,4.1c-0.47,0.38-2.76,2.2-5.02,3.59c-3.02,1.84-3.41,1.32-5.49,2.64c-3.08,1.96-6.48,5.82-6,9.55
		c0.19,1.5,1.06,3.4,1.23,3.76c0.57,1.21,0.88,1.86,1.55,2.58c0.53,0.57,1.96,2.12,4.29,2.29c1.98,0.14,4.28-0.73,5.38-2.6
		c1.44-2.46-0.22-4.96-0.38-5.19c-0.92-1.34-2.47-2.1-2.43-2.15c0.04-0.04,0.76,0.41,1.45,0.85c0,0,0.19,0.15,1.42,1.01
		c0.57,0.39,1.27,0.71,2.66,1.32c1.87,0.83,2.82,1.24,3.57,1.38c0.95,0.16,0.98,0.01,2.27,0.23c1.4,0.24,1.58,0.45,2.49,0.52
		c0.67,0.05,1.8,0.12,2.69-0.46c1.17-0.76,1.52-2.42,1.17-3.67c-0.53-1.85-2.58-2.79-2.31-3.18c0.08-0.11,0.33-0.18,1.23,0.05
		c2.21,0.57,3.69,1.78,3.76,1.83c1.62,1.31,3.9,1.55,8.46,2.03c2.46,0.26,6.57,0.7,9.67-0.32c0.02,0,1.57-0.51,3.69-0.68
		c0.54-0.05,2.15-0.18,2.24,0.14c0.08,0.27-0.96,0.74-1.23,0.86c-1.07,0.48-1.79,0.5-2.93,0.77c-1.09,0.26-1.58,0.53-2.31,0.78
		c-1.2,0.42-3.1,0.86-6.06,0.83c0.63,0.25,1.63,0.6,2.9,0.81c1.57,0.25,2.49,0.11,7.11-0.4c0.71-0.08,2.49-0.28,4.92-0.61
		c3.29-0.44,4-0.61,4.61-1.17C214.78,367.71,214.38,365.44,214.32,365.12z M190.56,292.52c0.1-0.06,0.21-0.05,0.27-0.15
		c0.11-0.18-0.15-0.43-0.05-0.54c0.08-0.09,0.32-0.04,0.47,0.02c0.39,0.14,0.38,0.4,0.81,0.64c0.2,0.11,0.4,0.16,0.49,0.18
		c0.4,0.11,0.57,0.04,0.68,0.16c0.15,0.17-0.1,0.4,0.05,0.58c0.17,0.23,0.65,0,0.86,0.24c0.19,0.2-0.06,0.51,0.15,0.68
		c0.15,0.15,0.35,0.02,0.51,0.15c0.2,0.17,0.18,0.64-0.08,0.77c-0.17,0.09-0.39,0.04-0.64,0c-0.58-0.1-1.19-0.03-1.79-0.04
		c-0.43-0.02-1.06-0.03-1.85-0.03c0.07-0.52,0.06-0.94,0.04-1.22C190.42,293.33,190.25,292.71,190.56,292.52z M183.47,295.2
		c-0.58,0-1.05,0.02-1.37,0.03c-0.43,0.01-0.88-0.05-1.31,0.03c-0.19,0.04-0.34,0.08-0.47,0c-0.22-0.13-0.25-0.54-0.06-0.69
		c0.16-0.12,0.38,0.05,0.53-0.08c0.17-0.14-0.03-0.4,0.12-0.55c0.21-0.21,0.78,0.11,0.96-0.08c0.14-0.15-0.14-0.46,0.02-0.63
		c0.14-0.14,0.44,0.02,0.56-0.13c0.13-0.15-0.13-0.38,0-0.54c0.09-0.12,0.25-0.01,0.71-0.13c0.1-0.03,0.18-0.05,0.25-0.02
		c0.1,0.05,0.1,0.24,0.09,0.32c-0.01,0.31-0.03,0.78-0.06,1.39C183.45,294.49,183.46,294.84,183.47,295.2z"/>
	<path class="st1" d="M189.96,293.13c0.04,0.73,0.18,1.13-0.08,1.33c-0.24,0.19-0.8,0.16-1.11,0.1c-0.2-0.04-0.33-0.1-0.41-0.03
		c-0.17,0.12,0.11,0.49-0.06,0.67c-0.09,0.1-0.22,0.05-0.74,0.05c-0.59,0.01-0.71,0.08-0.83-0.02c-0.2-0.18,0.03-0.52-0.18-0.69
		c-0.13-0.11-0.32-0.05-0.63-0.02c-0.67,0.07-1.12,0.13-1.34-0.05c-0.28-0.22-0.1-0.69,0-1.8c0.05-0.58,0.05-1.04,0.05-1.33
		c0.02,0,0.07,0.01,0.12,0.01c0.27,0.02,0.47,0.02,0.51,0.02c0.21,0,1.69,0.04,4.78,0.15C189.93,292.18,189.93,292.73,189.96,293.13
		z"/>
	<path class="st0" d="M186.11,285.79"/>
	<text transform="matrix(1.2175 0 0 1 156.8057 392.751)"><tspan x="0" y="0" class="st2 st3 st4">Taifa </tspan><tspan x="18.12" y="0" class="st0 st3 st4">Fashions</tspan></text>
</g>
</svg>
