<?xml version="1.0" encoding="utf-8"?>
<!-- Generator: Adobe Illustrator 25.4.1, SVG Export Plug-In . SVG Version: 6.00 Build 0)  -->
<svg version="1.1" id="Layer_1" xmlns="http://www.w3.org/2000/svg" xmlns:xlink="http://www.w3.org/1999/xlink" x="0px" y="0px"
	 viewBox="0 0 45 45" style="enable-background:new 0 0 45 45;" xml:space="preserve">
<style type="text/css">
	.st0{fill:#F47F20;}
	.st1{fill:#FFFFFF;}
	.st2{fill:#FFFFFF;}
	.st3{font-family:'MyriadPro-Regular';}
	.st4{font-size:3.0798px;}
</style>
<g>
	<path class="st0" d="M23.91,3.79c-0.14-0.08-0.64-0.37-0.78-0.91c-0.09-0.34,0.01-0.63,0.07-0.76c0.02-0.04,0.08-0.19,0.27-0.3
		c0.04-0.02,0.24-0.12,0.46-0.09c0.24,0.04,0.42,0.21,0.46,0.43c0,0.02,0.01,0.04,0.01,0.07c0.03,0.18,0.01,0.32-0.01,0.39
		c-0.02,0.11-0.03,0.27-0.03,0.48C24.08,2.2,23.87,2,23.73,2c-0.18,0.01-0.31,0.38-0.33,0.61C23.32,3.18,23.74,3.62,23.91,3.79z"/>
	<path class="st0" d="M25.03,4.11c-0.05,0.24-0.05,0.45-0.04,0.6c0.02,0.27,0.08,0.42-0.04,0.5c-0.11,0.07-0.36,0.06-0.5,0.04
		c-0.09-0.01-0.15-0.04-0.18-0.01c-0.08,0.04,0.05,0.18-0.03,0.25c-0.04,0.04-0.1,0.02-0.33,0.02c-0.27,0-0.32,0.03-0.37-0.01
		c-0.09-0.07,0.01-0.19-0.08-0.26c-0.06-0.04-0.14-0.02-0.28-0.01c-0.3,0.03-0.5,0.05-0.6-0.02c-0.13-0.08-0.05-0.25,0-0.67
		c0.03-0.23,0.04-0.42,0.04-0.54h0.02c0.09,0.02,0.17,0.03,0.22,0.01L25.03,4.11z"/>
	<path class="st0" d="M35.96,31.62c-0.22-0.96-1.18-1.18-3.24-2.8c-1.1-0.87-1.81-1.58-2.09-1.88c-0.86-0.89-1.43-1.7-1.78-2.24
		c0,0.05,0.01,0.12,0.02,0.19c0.02,0.21,0.07,0.55,0.25,1.04c0.21,0.56,0.38,1.01,0.78,1.53c0.54,0.69,0.96,0.8,1.14,1.42
		c0.07,0.25,0.12,0.64-0.03,0.69c-0.27,0.07-1.04-1.03-1.36-1.48c-0.24-0.34-0.62-0.91-1.05-1.74c-0.39-0.75-0.76-1.47-1.01-2.46
		c-0.14-0.55-0.06-0.46-0.27-1.41c-0.22-0.97-0.33-1.2-0.45-1.86c-0.07-0.39-0.15-0.98-0.14-1.72c-0.02,0.05-0.07,0.14-0.12,0.25
		c-0.19,0.38-0.32,0.59-0.56,1.01c-0.06,0.11-0.15,0.28-0.27,0.49c-0.09,0.19-0.23,0.47-0.38,0.81c0,0-0.2,0.5-0.37,0.94
		c-0.56,1.5,0.27,3.79-0.06,3.86c-0.03,0.01-0.12,0-0.31-0.24c-0.75-0.96-0.44-2.15-0.38-2.35c1.17-4.48,0.91-3.76,1.16-4.47
		c0.99-2.74,1.17-2.95,1.37-4.03c0.3-1.71,0.46-2.61-0.18-3.47c-0.47-0.63-0.87-1.29-1.32-1.93c-0.11-0.15-0.31-0.43-0.34-0.81
		c-0.04-0.38,0.13-0.74,0.2-0.92c0.07-0.16,0.08-0.14,0.2-0.4c0.27-0.53,0.4-0.8,0.43-1.12c0.05-0.49-0.18-0.65,0-0.78
		c0.18-0.13,0.46-0.03,1.28-0.01c0.32,0.01,0.58,0,0.76-0.01c-0.03-0.08-0.08-0.2-0.16-0.34c-0.05-0.09-0.21-0.33-0.85-0.83
		c-0.5-0.39-0.72-0.49-0.9-0.55c-0.15-0.05-0.48-0.16-0.67-0.06c-0.13,0.07-0.15,0.21-0.17,0.21c-0.01,0,0-0.09,0.09-0.41
		c-0.7,0.12-1.26,0.1-1.36-0.07c-0.06,0.04-0.18,0.11-0.35,0.13c-0.31,0.04-0.55-0.07-0.6-0.1c0.1,0.18,0.09,0.26,0.04,0.29
		c-0.01,0.01-0.02,0.01-0.03,0.01l2.17,0.1c-0.05,0.24-0.05,0.45-0.04,0.6c0.02,0.27,0.08,0.42-0.04,0.5
		c-0.11,0.07-0.36,0.06-0.5,0.04c-0.09-0.01-0.15-0.04-0.18-0.01c-0.08,0.04,0.05,0.18-0.03,0.25c-0.04,0.04-0.1,0.02-0.33,0.02
		c-0.27,0-0.32,0.03-0.37-0.01c-0.09-0.07,0.01-0.19-0.08-0.26c-0.06-0.04-0.14-0.02-0.28-0.01c-0.3,0.03-0.5,0.05-0.6-0.02
		c-0.13-0.08-0.05-0.25,0-0.67c0.03-0.23,0.04-0.42,0.04-0.54h0.02c-0.14-0.03-0.31-0.08-0.41-0.01c-0.13,0.07-0.04,0.21-0.17,0.26
		c-0.15,0.06-0.37-0.09-0.47-0.02c-0.04,0.02-0.03,0.07-0.03,0.09c0,0.23-0.64,0.44-0.93,0.6c-0.23,0.12-0.49,0.33-0.68,0.75
		c1.12-0.06,1.42,0.03,1.46,0.13c0.01,0.02,0,0.03-0.02,0.18c0,0-0.01,0.09-0.03,0.33c-0.03,0.34,0.19,0.82,0.19,0.82
		c0.24,0.51,0.56,0.84,0.72,1.05c0.76,0.98,0.54,2.53-0.39,3.39c-0.3,0.28-0.37,0.2-0.75,0.55c-0.58,0.54-0.78,1.06-1.08,1.89
		c-0.48,1.34-0.72,2.02-0.77,2.22c-0.21,0.91-0.4,2.38-0.03,4.24c0.21-0.17,0.51-0.43,0.85-0.75c0.28-0.26,1.01-0.96,1.98-2.16
		c0.84-1.04,1.26-1.7,1.34-1.67c0.03,0.01,0.04,0.08-0.26,0.71c-0.58,1.26-1.21,2.19-1.25,2.25c-0.56,0.83-1.36,2.02-2.7,3.37
		c-0.75,0.76-1.12,1.14-1.41,1.34c-0.57,0.4-1.2,0.72-1.57,1.38c-0.11,0.18-0.16,0.34-0.19,0.45c0.5-0.23,0.85-0.45,1.07-0.62
		c0.39-0.29,0.57-0.52,1.07-0.78c0.04-0.02,0.64-0.34,0.72-0.27c0.12,0.1-0.85,0.89-1.41,1.35c-0.6,0.5-1.17,0.96-2.03,1.53
		c-0.21,0.14-1.24,0.82-2.26,1.34c-1.36,0.69-1.54,0.49-2.47,0.99c-1.39,0.73-2.91,2.17-2.7,3.57c0.09,0.56,0.48,1.27,0.55,1.4
		c0.26,0.45,0.39,0.69,0.7,0.96c0.24,0.21,0.88,0.79,1.93,0.85c0.89,0.05,1.93-0.27,2.42-0.97c0.65-0.92-0.1-1.85-0.17-1.94
		c-0.42-0.5-1.11-0.78-1.09-0.8c0.02-0.02,0.34,0.15,0.65,0.32c0,0,0.09,0.05,0.64,0.38c0.26,0.15,0.57,0.26,1.2,0.49
		c0.84,0.31,1.27,0.46,1.61,0.52c0.43,0.06,0.44,0,1.02,0.08c0.63,0.09,0.71,0.17,1.12,0.19c0.3,0.02,0.81,0.04,1.21-0.17
		c0.53-0.29,0.68-0.91,0.53-1.37c-0.24-0.69-1.16-1.04-1.04-1.19c0.04-0.04,0.15-0.07,0.55,0.02c0.99,0.21,1.66,0.67,1.69,0.69
		c0.73,0.49,1.76,0.58,3.81,0.76c1.11,0.1,2.96,0.26,4.35-0.12c0.01,0,0.71-0.19,1.66-0.25c0.24-0.02,0.97-0.07,1.01,0.05
		c0.04,0.1-0.43,0.28-0.55,0.32c-0.48,0.18-0.81,0.19-1.32,0.29c-0.49,0.1-0.71,0.2-1.04,0.29c-0.54,0.16-1.4,0.32-2.73,0.31
		c0.28,0.1,0.73,0.22,1.3,0.3c0.71,0.09,1.12,0.04,3.2-0.15c0.32-0.03,1.12-0.11,2.21-0.23c1.48-0.16,1.8-0.23,2.07-0.44
		C36.16,32.59,35.98,31.74,35.96,31.62z M25.26,4.48c0.05-0.02,0.09-0.02,0.12-0.05c0.05-0.07-0.07-0.16-0.02-0.2
		c0.04-0.03,0.14-0.01,0.21,0.01c0.18,0.05,0.17,0.15,0.36,0.24c0.09,0.04,0.18,0.06,0.22,0.07c0.18,0.04,0.26,0.01,0.31,0.06
		c0.07,0.06-0.05,0.15,0.02,0.22c0.08,0.08,0.29,0,0.39,0.09c0.09,0.07-0.03,0.19,0.07,0.25c0.07,0.05,0.16,0.01,0.23,0.06
		c0.09,0.06,0.08,0.24-0.04,0.29c-0.08,0.03-0.18,0.01-0.29,0c-0.26-0.04-0.54-0.01-0.81-0.01c-0.19-0.01-0.48-0.01-0.83-0.01
		c0.03-0.19,0.03-0.35,0.02-0.45C25.2,4.78,25.13,4.55,25.26,4.48z M22.07,5.48c-0.26,0-0.47,0.01-0.62,0.01
		c-0.19,0-0.4-0.02-0.59,0.01c-0.09,0.01-0.15,0.03-0.21,0c-0.1-0.05-0.11-0.2-0.03-0.26c0.07-0.04,0.17,0.02,0.24-0.03
		c0.08-0.05-0.01-0.15,0.05-0.21c0.09-0.08,0.35,0.04,0.43-0.03c0.06-0.06-0.06-0.17,0.01-0.23c0.06-0.05,0.2,0.01,0.25-0.05
		c0.06-0.05-0.06-0.14,0-0.2c0.04-0.04,0.11,0,0.32-0.05c0.04-0.01,0.08-0.02,0.11-0.01c0.04,0.02,0.04,0.09,0.04,0.12
		c0,0.12-0.01,0.29-0.03,0.52C22.07,5.22,22.07,5.35,22.07,5.48z"/>
	<path class="st1" d="M24.99,4.71c0.02,0.27,0.08,0.42-0.04,0.5c-0.11,0.07-0.36,0.06-0.5,0.04c-0.09-0.01-0.15-0.04-0.18-0.01
		c-0.08,0.04,0.05,0.18-0.03,0.25c-0.04,0.04-0.1,0.02-0.33,0.02c-0.27,0-0.32,0.03-0.37-0.01c-0.09-0.07,0.01-0.19-0.08-0.26
		c-0.06-0.04-0.14-0.02-0.28-0.01c-0.3,0.03-0.5,0.05-0.6-0.02c-0.13-0.08-0.04-0.26,0-0.67c0.02-0.22,0.02-0.39,0.02-0.5
		c0.01,0,0.03,0,0.06,0c0.12,0.01,0.21,0.01,0.23,0.01c0.09,0,0.76,0.02,2.15,0.06C24.98,4.35,24.98,4.56,24.99,4.71z"/>
	<path class="st0" d="M23.26,1.96"/>
	<text transform="matrix(1.4656 0 0 1 10.0742 41.9477)"><tspan x="0" y="0" class="st2 st3 st4">Taifa </tspan><tspan x="6.77" y="0" class="st0 st3 st4">Fashions</tspan></text>
</g>
</svg>
